0
SECTION
2
HEADER
9
$INSUNITS
70
4
9
$ACADVER
1
AC1014
9
$HANDSEED
5
FFFF
0
ENDSEC
0
SECTION
2
TABLES
0
TABLE
2
VPORT
5
8
100
AcDbSymbolTable
0
ENDTAB
0
TABLE
2
LTYPE
5
5
100
AcDbSymbolTable
0
LTYPE
5
14
100
AcDbSymbolTableRecord
100
AcDbLinetypeTableRecord
2
BYBLOCK
70
0
0
LTYPE
5
15
100
AcDbSymbolTableRecord
100
AcDbLinetypeTableRecord
2
BYLAYER
70
0
0
LTYPE
5
16
100
AcDbSymbolTableRecord
100
AcDbLinetypeTableRecord
2
DASHED
70
0
3
Dashed __ __ __ __ __ __ __ __ __ __ __ __ __ _
72
65
73
2
40
0.75
49
0.5
74
0
49
-0.25
74
0
0
ENDTAB
0
TABLE
2
LAYER
5
2
100
AcDbSymbolTable
70
2
0
LAYER
5
50
100
AcDbSymbolTableRecord
100
AcDbLayerTableRecord
2
0
70
0
62
7
6
CONTINUOUS
0
ENDTAB
0
TABLE
2
STYLE
5
3
100
AcDbSymbolTable
70
1
0
STYLE
5
11
100
AcDbSymbolTableRecord
100
AcDbTextStyleTableRecord
2
STANDARD
70
0
0
ENDTAB
0
TABLE
2
VIEW
5
6
100
AcDbSymbolTable
70
0
0
ENDTAB
0
TABLE
2
UCS
5
7
100
AcDbSymbolTable
70
0
0
ENDTAB
0
TABLE
2
APPID
5
9
100
AcDbSymbolTable
70
2
0
APPID
5
12
100
AcDbSymbolTableRecord
100
AcDbRegAppTableRecord
2
ACAD
70
0
0
ENDTAB
0
TABLE
2
DIMSTYLE
5
A
100
AcDbSymbolTable
70
1
0
ENDTAB
0
TABLE
2
BLOCK_RECORD
5
1
100
AcDbSymbolTable
70
1
0
BLOCK_RECORD
5
1F
100
AcDbSymbolTableRecord
100
AcDbBlockTableRecord
2
*MODEL_SPACE
0
BLOCK_RECORD
5
1B
100
AcDbSymbolTableRecord
100
AcDbBlockTableRecord
2
*PAPER_SPACE
0
ENDTAB
0
ENDSEC
0
SECTION
2
BLOCKS
0
BLOCK
5
20
100
AcDbEntity
100
AcDbBlockBegin
2
*MODEL_SPACE
0
ENDBLK
5
21
100
AcDbEntity
100
AcDbBlockEnd
0
BLOCK
5
1C
100
AcDbEntity
100
AcDbBlockBegin
2
*PAPER_SPACE
0
ENDBLK
5
1D
100
AcDbEntity
100
AcDbBlockEnd
0
ENDSEC
0
SECTION
2
ENTITIES
0
POINT
5
100
100
AcDbEntity
8
0
100
AcDbPoint
10
0
20
0
30
0
0
POINT
5
101
100
AcDbEntity
8
0
100
AcDbPoint
10
-70
20
-2.2204460492503131e-15
30
0
0
POINT
5
102
100
AcDbEntity
8
0
100
AcDbPoint
10
-140
20
80
30
0
0
POINT
5
103
100
AcDbEntity
8
0
100
AcDbPoint
10
0
20
-4.4408920985006262e-15
30
0
0
POINT
5
104
100
AcDbEntity
8
0
100
AcDbPoint
10
0
20
80
30
0
0
POINT
5
105
100
AcDbEntity
8
0
100
AcDbPoint
10
0
20
80
30
0
0
LWPOLYLINE
5
106
100
AcDbEntity
8
0
100
AcDbPolyline
90
8
70
1
43
0.0
10
0
20
0
10
-140
20
0
10
-200
20
0
10
-200
20
160
10
-140
20
160
10
-140
20
0
10
-140
20
160
10
0
20
160
0
LWPOLYLINE
5
107
100
AcDbEntity
8
0
100
AcDbPolyline
90
4
70
1
43
0.0
10
0
20
160
10
-140
20
160
10
-140
20
220
10
0
20
220
0
LINE
5
108
100
AcDbEntity
8
0
100
AcDbLine
10
-140
20
160
30
0
11
-145
21
160
31
0
0
LINE
5
109
100
AcDbEntity
8
0
100
AcDbLine
10
-145
20
160
30
0
11
-145
21
166
31
0
0
LINE
5
110
100
AcDbEntity
8
0
100
AcDbLine
10
-145
20
166
30
0
11
-140
21
166
31
0
0
LINE
5
111
100
AcDbEntity
8
0
100
AcDbLine
10
-145
20
172
30
0
11
-145
21
178
31
0
0
LINE
5
112
100
AcDbEntity
8
0
100
AcDbLine
10
-145
20
178
30
0
11
-140
21
178
31
0
0
LINE
5
113
100
AcDbEntity
8
0
100
AcDbLine
10
-145
20
184
30
0
11
-145
21
190
31
0
0
LINE
5
114
100
AcDbEntity
8
0
100
AcDbLine
10
-145
20
190
30
0
11
-140
21
190
31
0
0
LINE
5
115
100
AcDbEntity
8
0
100
AcDbLine
10
-145
20
196
30
0
11
-145
21
202.00000000000003
31
0
0
LINE
5
116
100
AcDbEntity
8
0
100
AcDbLine
10
-145
20
202.00000000000003
30
0
11
-140
21
202.00000000000003
31
0
0
LINE
5
117
100
AcDbEntity
8
0
100
AcDbLine
10
-145
20
208
30
0
11
-145
21
214.00000000000003
31
0
0
LINE
5
118
100
AcDbEntity
8
0
100
AcDbLine
10
-145
20
214.00000000000003
30
0
11
-140
21
214.00000000000003
31
0
0
LINE
5
119
100
AcDbEntity
8
0
100
AcDbLine
10
-145
20
172
30
0
11
-140
21
172
31
0
0
LINE
5
120
100
AcDbEntity
8
0
100
AcDbLine
10
-145
20
184
30
0
11
-140
21
184
31
0
0
LINE
5
121
100
AcDbEntity
8
0
100
AcDbLine
10
-145
20
196
30
0
11
-140
21
196
31
0
0
LINE
5
122
100
AcDbEntity
8
0
100
AcDbLine
10
-145
20
208
30
0
11
-140
21
208
31
0
0
LINE
5
123
100
AcDbEntity
8
0
100
AcDbLine
10
-140
20
160
30
0
11
-146
21
160
31
0
0
LINE
5
124
100
AcDbEntity
8
0
100
AcDbLine
10
-146
20
160
30
0
11
-146.00000000000009
21
166
31
0
0
LINE
5
125
100
AcDbEntity
8
0
100
AcDbLine
10
-146.00000000000009
20
166
30
0
11
-152.00000000000011
21
166
31
0
0
LINE
5
126
100
AcDbEntity
8
0
100
AcDbLine
10
-152.00000000000011
20
166
30
0
11
-152.00000000000011
21
160
31
0
0
LINE
5
127
100
AcDbEntity
8
0
100
AcDbLine
10
-152
20
160
30
0
11
-158
21
160
31
0
0
LINE
5
128
100
AcDbEntity
8
0
100
AcDbLine
10
-158
20
160
30
0
11
-158.00000000000009
21
166
31
0
0
LINE
5
129
100
AcDbEntity
8
0
100
AcDbLine
10
-158.00000000000009
20
166
30
0
11
-164.00000000000011
21
166
31
0
0
LINE
5
130
100
AcDbEntity
8
0
100
AcDbLine
10
-164.00000000000011
20
166
30
0
11
-164.00000000000011
21
160
31
0
0
LINE
5
131
100
AcDbEntity
8
0
100
AcDbLine
10
-164
20
160
30
0
11
-170
21
160
31
0
0
LINE
5
132
100
AcDbEntity
8
0
100
AcDbLine
10
-170
20
160
30
0
11
-170.00000000000006
21
166
31
0
0
LINE
5
133
100
AcDbEntity
8
0
100
AcDbLine
10
-170.00000000000006
20
166
30
0
11
-176.00000000000009
21
166
31
0
0
LINE
5
134
100
AcDbEntity
8
0
100
AcDbLine
10
-176.00000000000009
20
166
30
0
11
-176.00000000000009
21
160
31
0
0
LINE
5
135
100
AcDbEntity
8
0
100
AcDbLine
10
-176
20
160
30
0
11
-182
21
160
31
0
0
LINE
5
136
100
AcDbEntity
8
0
100
AcDbLine
10
-182
20
160
30
0
11
-182.00000000000011
21
166
31
0
0
LINE
5
137
100
AcDbEntity
8
0
100
AcDbLine
10
-182.00000000000011
20
166
30
0
11
-188.00000000000011
21
166
31
0
0
LINE
5
138
100
AcDbEntity
8
0
100
AcDbLine
10
-188.00000000000011
20
166
30
0
11
-188.00000000000011
21
160
31
0
0
LINE
5
139
100
AcDbEntity
8
0
100
AcDbLine
10
-188
20
160
30
0
11
-194
21
160
31
0
0
LINE
5
140
100
AcDbEntity
8
0
100
AcDbLine
10
-194
20
160
30
0
11
-194.00000000000009
21
166
31
0
0
LINE
5
141
100
AcDbEntity
8
0
100
AcDbLine
10
-194.00000000000009
20
166
30
0
11
-200.00000000000006
21
166
31
0
0
LINE
5
142
100
AcDbEntity
8
0
100
AcDbLine
10
-200.00000000000006
20
166
30
0
11
-200.00000000000006
21
160
31
0
0
LINE
5
143
100
AcDbEntity
8
0
100
AcDbLine
10
-140
20
80
30
0
11
0
21
80
31
0
6
DASHED
0
LINE
5
144
100
AcDbEntity
8
0
100
AcDbLine
10
-70
20
0
30
0
11
-70
21
160
31
0
6
DASHED
0
LINE
5
145
100
AcDbEntity
8
0
100
AcDbLine
10
-145
20
-36.000000000000028
30
0
11
-140
21
-36.000000000000021
31
0
0
LINE
5
146
100
AcDbEntity
8
0
100
AcDbLine
10
-152.00000000000006
20
-6.0000000000000187
30
0
11
-152.00000000000009
21
-4.4408920985006262e-15
31
0
0
LINE
5
147
100
AcDbEntity
8
0
100
AcDbLine
10
-158
20
4.4408920985006262e-15
30
0
11
-158.00000000000009
21
-6.0000000000000187
31
0
0
LINE
5
148
100
AcDbEntity
8
0
100
AcDbLine
10
-145
20
-54.000000000000021
30
0
11
-140
21
-54.000000000000021
31
0
0
LINE
5
149
100
AcDbEntity
8
0
100
AcDbLine
10
-145
20
-30.000000000000004
30
0
11
-140
21
-30.000000000000004
31
0
0
LINE
5
150
100
AcDbEntity
8
0
100
AcDbLine
10
-176.00000000000009
20
-6.0000000000000187
30
0
11
-176.00000000000009
21
-5.5511151231257827e-15
31
0
0
LINE
5
151
100
AcDbEntity
8
0
100
AcDbLine
10
-145
20
-11.999999999999996
30
0
11
-140
21
-11.999999999999996
31
0
0
LINE
5
152
100
AcDbEntity
8
0
100
AcDbLine
10
4.4408920985006262e-15
20
-60
30
0
11
4.4408920985006262e-15
21
-2.7755575615628914e-16
31
0
0
LINE
5
153
100
AcDbEntity
8
0
100
AcDbLine
10
-145
20
-4.4408920985006262e-15
30
0
11
-145
21
-6.0000000000000187
31
0
0
LINE
5
154
100
AcDbEntity
8
0
100
AcDbLine
10
-200.00000000000006
20
-6.0000000000000231
30
0
11
-200.00000000000006
21
-6.6613381477509392e-15
31
0
0
LINE
5
155
100
AcDbEntity
8
0
100
AcDbLine
10
-140
20
-60
30
0
11
4.4408920985006262e-15
21
-60
31
0
0
LINE
5
156
100
AcDbEntity
8
0
100
AcDbLine
10
-145
20
-36.000000000000028
30
0
11
-145
21
-42.000000000000028
31
0
0
LINE
5
157
100
AcDbEntity
8
0
100
AcDbLine
10
-146.00000000000009
20
-6.0000000000000187
30
0
11
-152.00000000000006
21
-6.0000000000000187
31
0
0
LINE
5
158
100
AcDbEntity
8
0
100
AcDbLine
10
-145
20
-11.999999999999996
30
0
11
-145
21
-18.000000000000011
31
0
0
LINE
5
159
100
AcDbEntity
8
0
100
AcDbLine
10
-182
20
0
30
0
11
-182.00000000000011
21
-6.0000000000000231
31
0
0
LINE
5
160
100
AcDbEntity
8
0
100
AcDbLine
10
-164.00000000000006
20
-6.0000000000000187
30
0
11
-164.00000000000011
21
-4.4408920985006262e-15
31
0
0
LINE
5
161
100
AcDbEntity
8
0
100
AcDbLine
10
-194.00000000000009
20
-6.0000000000000231
30
0
11
-200.00000000000006
21
-6.0000000000000231
31
0
0
LINE
5
162
100
AcDbEntity
8
0
100
AcDbLine
10
-182.00000000000011
20
-6.0000000000000231
30
0
11
-188.00000000000011
21
-6.0000000000000231
31
0
0
LINE
5
163
100
AcDbEntity
8
0
100
AcDbLine
10
-146
20
1.3322676295501878e-14
30
0
11
-146.00000000000009
21
-6.0000000000000187
31
0
0
LINE
5
164
100
AcDbEntity
8
0
100
AcDbLine
10
-145
20
-6.0000000000000187
30
0
11
-140
21
-6.0000000000000187
31
0
0
LINE
5
165
100
AcDbEntity
8
0
100
AcDbLine
10
-145
20
-18.000000000000011
30
0
11
-140
21
-18.000000000000011
31
0
0
LINE
5
166
100
AcDbEntity
8
0
100
AcDbLine
10
-194
20
0
30
0
11
-194.00000000000009
21
-6.0000000000000231
31
0
0
LINE
5
167
100
AcDbEntity
8
0
100
AcDbLine
10
-145
20
-23.999999999999989
30
0
11
-140
21
-23.999999999999989
31
0
0
LINE
5
168
100
AcDbEntity
8
0
100
AcDbLine
10
-145
20
-48.000000000000007
30
0
11
-140
21
-48.000000000000007
31
0
0
LINE
5
169
100
AcDbEntity
8
0
100
AcDbLine
10
-188.00000000000011
20
-6.0000000000000231
30
0
11
-188.00000000000011
21
-4.4408920985006262e-15
31
0
0
LINE
5
170
100
AcDbEntity
8
0
100
AcDbLine
10
-170.00000000000006
20
-6.0000000000000187
30
0
11
-176.00000000000009
21
-6.0000000000000187
31
0
0
LINE
5
171
100
AcDbEntity
8
0
100
AcDbLine
10
-170
20
4.4408920985006262e-15
30
0
11
-170.00000000000006
21
-6.0000000000000187
31
0
0
LINE
5
172
100
AcDbEntity
8
0
100
AcDbLine
10
-145
20
-23.999999999999989
30
0
11
-145
21
-30.000000000000004
31
0
0
LINE
5
173
100
AcDbEntity
8
0
100
AcDbLine
10
-145
20
-42.000000000000028
30
0
11
-140
21
-42.000000000000036
31
0
0
LINE
5
174
100
AcDbEntity
8
0
100
AcDbLine
10
-158.00000000000009
20
-6.0000000000000187
30
0
11
-164.00000000000006
21
-6.0000000000000187
31
0
0
LINE
5
175
100
AcDbEntity
8
0
100
AcDbLine
10
-145
20
-48.000000000000007
30
0
11
-145
21
-54.000000000000021
31
0
0
LINE
5
176
100
AcDbEntity
8
0
100
AcDbLine
10
-140
20
-4.4408920985006262e-15
30
0
11
-140
21
-60
31
0
0
LINE
5
177
100
AcDbEntity
8
0
100
AcDbLine
10
-188
20
-8.8817841970012523e-15
30
0
11
-194
21
0
31
0
0
LINE
5
178
100
AcDbEntity
8
0
100
AcDbLine
10
-140
20
-4.4408920985006262e-15
30
0
11
-146
21
1.3322676295501878e-14
31
0
0
LWPOLYLINE
5
179
100
AcDbEntity
8
0
100
AcDbPolyline
90
4
70
1
43
0.0
10
-200
20
-6.6613381477509392e-15
10
-140
20
-4.163336342344337e-15
10
-140
20
160
10
-200
20
160
0
LINE
5
180
100
AcDbEntity
8
0
100
AcDbLine
10
-176
20
-4.4408920985006262e-15
30
0
11
-182
21
0
31
0
0
LINE
5
181
100
AcDbEntity
8
0
100
AcDbLine
10
-140
20
160
30
0
11
-140
21
-4.4408920985006262e-15
31
0
0
LINE
5
182
100
AcDbEntity
8
0
100
AcDbLine
10
-164
20
-4.4408920985006262e-15
30
0
11
-170
21
4.4408920985006262e-15
31
0
0
LINE
5
183
100
AcDbEntity
8
0
100
AcDbLine
10
-152
20
-4.4408920985006262e-15
30
0
11
-158
21
4.4408920985006262e-15
31
0
0
LINE
5
184
100
AcDbEntity
8
0
100
AcDbLine
10
-140
20
-4.4408920985006262e-15
30
0
11
-145
21
-4.4408920985006262e-15
31
0
0
LINE
5
185
100
AcDbEntity
8
0
100
AcDbLine
10
0
20
0
30
0
11
0
21
160
31
0
0
LINE
5
186
100
AcDbEntity
8
0
100
AcDbLine
10
5
20
214.00000000000003
30
0
11
0
21
214.00000000000003
31
0
0
LINE
5
187
100
AcDbEntity
8
0
100
AcDbLine
10
5
20
190
30
0
11
0
21
190
31
0
0
LINE
5
188
100
AcDbEntity
8
0
100
AcDbLine
10
5
20
-4.4408920985006262e-15
30
0
11
5
21
-6.0000000000000187
31
0
0
LINE
5
189
100
AcDbEntity
8
0
100
AcDbLine
10
5
20
-42.000000000000028
30
0
11
0
21
-42.000000000000036
31
0
0
LINE
5
190
100
AcDbEntity
8
0
100
AcDbLine
10
5
20
-36.000000000000028
30
0
11
5
21
-42.000000000000028
31
0
0
LINE
5
191
100
AcDbEntity
8
0
100
AcDbLine
10
48.000000000000114
20
-6.0000000000000231
30
0
11
48.000000000000114
21
-4.4408920985006262e-15
31
0
0
LINE
5
192
100
AcDbEntity
8
0
100
AcDbLine
10
5
20
-36.000000000000028
30
0
11
0
21
-36.000000000000021
31
0
0
LINE
5
193
100
AcDbEntity
8
0
100
AcDbLine
10
36.000000000000014
20
-4.4408920985006262e-15
30
0
11
41.999999999999993
21
0
31
0
0
LINE
5
194
100
AcDbEntity
8
0
100
AcDbLine
10
6.0000000000000853
20
-6.0000000000000187
30
0
11
12.000000000000064
21
-6.0000000000000187
31
0
0
LINE
5
195
100
AcDbEntity
8
0
100
AcDbLine
10
42.000000000000099
20
-6.0000000000000231
30
0
11
48.000000000000114
21
-6.0000000000000231
31
0
0
LINE
5
196
100
AcDbEntity
8
0
100
AcDbLine
10
5
20
-6.0000000000000187
30
0
11
0
21
-6.0000000000000187
31
0
0
LINE
5
197
100
AcDbEntity
8
0
100
AcDbLine
10
5
20
196
30
0
11
0
21
196
31
0
0
LINE
5
198
100
AcDbEntity
8
0
100
AcDbLine
10
5
20
-48.000000000000007
30
0
11
0
21
-48.000000000000007
31
0
0
LINE
5
199
100
AcDbEntity
8
0
100
AcDbLine
10
5
20
-23.999999999999989
30
0
11
0
21
-23.999999999999989
31
0
0
LINE
5
200
100
AcDbEntity
8
0
100
AcDbLine
10
30
20
4.4408920985006262e-15
30
0
11
30.000000000000071
21
-6.0000000000000187
31
0
0
LINE
5
201
100
AcDbEntity
8
0
100
AcDbLine
10
0
20
160
30
0
11
0
21
220
31
0
0
LINE
5
202
100
AcDbEntity
8
0
100
AcDbLine
10
5
20
-48.000000000000007
30
0
11
5
21
-54.000000000000021
31
0
0
LINE
5
203
100
AcDbEntity
8
0
100
AcDbLine
10
36.000000000000085
20
-6.0000000000000187
30
0
11
36.000000000000085
21
-5.5511151231257827e-15
31
0
0
LINE
5
204
100
AcDbEntity
8
0
100
AcDbLine
10
53.999999999999986
20
0
30
0
11
54.000000000000092
21
-6.0000000000000231
31
0
0
LINE
5
205
100
AcDbEntity
8
0
100
AcDbLine
10
5
20
184
30
0
11
0
21
184
31
0
0
LWPOLYLINE
5
206
100
AcDbEntity
8
0
100
AcDbPolyline
90
4
70
1
43
0.0
10
60
20
160
10
0
20
160
10
0
20
0
10
60
20
0
0
LWPOLYLINE
5
207
100
AcDbEntity
8
0
100
AcDbPolyline
90
4
70
1
43
0.0
10
0
20
160
10
60
20
160
10
60
20
-6.6613381477509392e-15
10
0
20
-4.163336342344337e-15
0
LINE
5
208
100
AcDbEntity
8
0
100
AcDbLine
10
5
20
178
30
0
11
0
21
178
31
0
0
LINE
5
209
100
AcDbEntity
8
0
100
AcDbLine
10
5
20
166
30
0
11
0
21
166
31
0
0
LINE
5
210
100
AcDbEntity
8
0
100
AcDbLine
10
0
20
160
30
0
11
5.9999999999999964
21
160
31
0
0
LINE
5
211
100
AcDbEntity
8
0
100
AcDbLine
10
0
20
160
30
0
11
5
21
160
31
0
0
LINE
5
212
100
AcDbEntity
8
0
100
AcDbLine
10
5
20
-54.000000000000021
30
0
11
0
21
-54.000000000000021
31
0
0
LINE
5
213
100
AcDbEntity
8
0
100
AcDbLine
10
5
20
-11.999999999999996
30
0
11
0
21
-11.999999999999996
31
0
0
LINE
5
214
100
AcDbEntity
8
0
100
AcDbLine
10
30.000000000000071
20
-6.0000000000000187
30
0
11
36.000000000000085
21
-6.0000000000000187
31
0
0
LINE
5
215
100
AcDbEntity
8
0
100
AcDbLine
10
5
20
-23.999999999999989
30
0
11
5
21
-30.000000000000004
31
0
0
LINE
5
216
100
AcDbEntity
8
0
100
AcDbLine
10
5
20
202.00000000000003
30
0
11
0
21
202.00000000000003
31
0
0
LINE
5
217
100
AcDbEntity
8
0
100
AcDbLine
10
23.999999999999986
20
-4.4408920985006262e-15
30
0
11
30
21
4.4408920985006262e-15
31
0
0
LINE
5
218
100
AcDbEntity
8
0
100
AcDbLine
10
5
20
172
30
0
11
0
21
172
31
0
0
LINE
5
219
100
AcDbEntity
8
0
100
AcDbLine
10
0
20
-4.4408920985006262e-15
30
0
11
5
21
-4.4408920985006262e-15
31
0
0
LINE
5
220
100
AcDbEntity
8
0
100
AcDbLine
10
0
20
-4.4408920985006262e-15
30
0
11
5.9999999999999964
21
1.3322676295501878e-14
31
0
0
LINE
5
221
100
AcDbEntity
8
0
100
AcDbLine
10
5
20
196
30
0
11
5
21
202.00000000000003
31
0
0
LINE
5
222
100
AcDbEntity
8
0
100
AcDbLine
10
5.9999999999999964
20
160
30
0
11
6.0000000000000853
21
166
31
0
0
LINE
5
223
100
AcDbEntity
8
0
100
AcDbLine
10
12.000000000000099
20
166
30
0
11
12.000000000000099
21
160
31
0
0
LINE
5
224
100
AcDbEntity
8
0
100
AcDbLine
10
18.000000000000007
20
160
30
0
11
18.000000000000078
21
166
31
0
0
LINE
5
225
100
AcDbEntity
8
0
100
AcDbLine
10
36.000000000000014
20
160
30
0
11
41.999999999999993
21
160
31
0
0
LINE
5
226
100
AcDbEntity
8
0
100
AcDbLine
10
53.999999999999986
20
160
30
0
11
54.000000000000092
21
166
31
0
0
LINE
5
227
100
AcDbEntity
8
0
100
AcDbLine
10
5
20
160
30
0
11
5
21
166
31
0
0
LINE
5
228
100
AcDbEntity
8
0
100
AcDbLine
10
5
20
184
30
0
11
5
21
190
31
0
0
LINE
5
229
100
AcDbEntity
8
0
100
AcDbLine
10
30
20
160
30
0
11
30.000000000000071
21
166
31
0
0
LINE
5
230
100
AcDbEntity
8
0
100
AcDbLine
10
48.000000000000114
20
166
30
0
11
48.000000000000114
21
160
31
0
0
LINE
5
231
100
AcDbEntity
8
0
100
AcDbLine
10
60.000000000000071
20
166
30
0
11
60.000000000000071
21
160
31
0
0
LINE
5
232
100
AcDbEntity
8
0
100
AcDbLine
10
5
20
208
30
0
11
5
21
214.00000000000003
31
0
0
LINE
5
233
100
AcDbEntity
8
0
100
AcDbLine
10
11.999999999999993
20
160
30
0
11
18.000000000000007
21
160
31
0
0
LINE
5
234
100
AcDbEntity
8
0
100
AcDbLine
10
24.000000000000128
20
166
30
0
11
24.000000000000128
21
160
31
0
0
LINE
5
235
100
AcDbEntity
8
0
100
AcDbLine
10
54.000000000000092
20
166
30
0
11
60.000000000000071
21
166
31
0
0
LINE
5
236
100
AcDbEntity
8
0
100
AcDbLine
10
5
20
172
30
0
11
5
21
178
31
0
0
LINE
5
237
100
AcDbEntity
8
0
100
AcDbLine
10
6.0000000000000853
20
166
30
0
11
12.000000000000099
21
166
31
0
0
LINE
5
238
100
AcDbEntity
8
0
100
AcDbLine
10
18.000000000000078
20
166
30
0
11
24.000000000000128
21
166
31
0
0
LINE
5
239
100
AcDbEntity
8
0
100
AcDbLine
10
23.999999999999986
20
160
30
0
11
30
21
160
31
0
0
LINE
5
240
100
AcDbEntity
8
0
100
AcDbLine
10
30.000000000000071
20
166
30
0
11
36.000000000000085
21
166
31
0
0
LINE
5
241
100
AcDbEntity
8
0
100
AcDbLine
10
5
20
208
30
0
11
0
21
208
31
0
0
LINE
5
242
100
AcDbEntity
8
0
100
AcDbLine
10
36.000000000000085
20
166
30
0
11
36.000000000000085
21
160
31
0
0
LINE
5
243
100
AcDbEntity
8
0
100
AcDbLine
10
5
20
-30.000000000000004
30
0
11
0
21
-30.000000000000004
31
0
0
LINE
5
244
100
AcDbEntity
8
0
100
AcDbLine
10
41.999999999999993
20
160
30
0
11
42.000000000000099
21
166
31
0
0
LINE
5
245
100
AcDbEntity
8
0
100
AcDbLine
10
5
20
-18.000000000000011
30
0
11
0
21
-18.000000000000011
31
0
0
LINE
5
246
100
AcDbEntity
8
0
100
AcDbLine
10
42.000000000000099
20
166
30
0
11
48.000000000000114
21
166
31
0
0
LINE
5
247
100
AcDbEntity
8
0
100
AcDbLine
10
48.000000000000007
20
160
30
0
11
53.999999999999986
21
160
31
0
0
LINE
5
248
100
AcDbEntity
8
0
100
AcDbLine
10
12.000000000000064
20
-6.0000000000000187
30
0
11
12.000000000000082
21
-4.4408920985006262e-15
31
0
0
LINE
5
249
100
AcDbEntity
8
0
100
AcDbLine
10
18.000000000000007
20
4.4408920985006262e-15
30
0
11
18.000000000000096
21
-6.0000000000000187
31
0
0
LINE
5
250
100
AcDbEntity
8
0
100
AcDbLine
10
60.000000000000071
20
-6.0000000000000231
30
0
11
60.000000000000071
21
-6.6613381477509392e-15
31
0
0
LINE
5
251
100
AcDbEntity
8
0
100
AcDbLine
10
5
20
-11.999999999999996
30
0
11
5
21
-18.000000000000011
31
0
0
LINE
5
252
100
AcDbEntity
8
0
100
AcDbLine
10
41.999999999999993
20
0
30
0
11
42.000000000000099
21
-6.0000000000000231
31
0
0
LINE
5
253
100
AcDbEntity
8
0
100
AcDbLine
10
24.000000000000057
20
-6.0000000000000187
30
0
11
24.000000000000128
21
-4.4408920985006262e-15
31
0
0
LINE
5
254
100
AcDbEntity
8
0
100
AcDbLine
10
54.000000000000092
20
-6.0000000000000231
30
0
11
60.000000000000071
21
-6.0000000000000231
31
0
0
LINE
5
255
100
AcDbEntity
8
0
100
AcDbLine
10
18.000000000000096
20
-6.0000000000000187
30
0
11
24.000000000000057
21
-6.0000000000000187
31
0
0
LINE
5
256
100
AcDbEntity
8
0
100
AcDbLine
10
0
20
160
30
0
11
0
21
-4.4408920985006262e-15
31
0
0
LINE
5
257
100
AcDbEntity
8
0
100
AcDbLine
10
48.000000000000007
20
-8.8817841970012523e-15
30
0
11
53.999999999999986
21
0
31
0
0
LINE
5
258
100
AcDbEntity
8
0
100
AcDbLine
10
11.999999999999993
20
-4.4408920985006262e-15
30
0
11
18.000000000000007
21
4.4408920985006262e-15
31
0
0
LINE
5
259
100
AcDbEntity
8
0
100
AcDbLine
10
5.9999999999999964
20
1.3322676295501878e-14
30
0
11
6.0000000000000853
21
-6.0000000000000187
31
0
0
CIRCLE
5
260
100
AcDbEntity
8
0
100
AcDbCircle
10
-30
20
-30
30
-1.4210854715202004e-13
40
12.6
210
0
220
0
230
1
0
LWPOLYLINE
5
261
100
AcDbEntity
8
0
100
AcDbPolyline
90
4
70
1
43
0.0
10
-110
20
-20
10
-82.5
20
-20
10
-82.5
20
-39.299999999999997
10
-110
20
-39.299999999999997
0
ENDSEC
0
SECTION
2
OBJECTS
0
DICTIONARY
5
C
100
AcDbDictionary
3
ACAD_GROUP
350
D
3
ACAD_MLINESTYLE
350
17
0
DICTIONARY
5
D
100
AcDbDictionary
0
DICTIONARY
5
1A
330
C
100
AcDbDictionary
0
DICTIONARY
5
17
100
AcDbDictionary
0
ENDSEC
0
EOF
